<svg width="24" height="19" viewBox="0 0 24 19" fill="none" xmlns="http://www.w3.org/2000/svg">
<path d="M13.3596 0.66599C13.6811 0.344606 14.1171 0.164063 14.5717 0.164062C15.0262 0.164062 15.4622 0.344606 15.7837 0.66599L23.4981 8.38039C23.8195 8.70187 24 9.13784 24 9.59241C24 10.047 23.8195 10.4829 23.4981 10.8044L15.7837 18.5188C15.4603 18.8311 15.0273 19.0039 14.5778 19C14.1283 18.9961 13.6984 18.8158 13.3805 18.4979C13.0627 18.1801 12.8824 17.7501 12.8785 17.3006C12.8746 16.8512 13.0474 16.4181 13.3596 16.0948L18.0003 11.3067H1.71431C1.25965 11.3067 0.823606 11.1261 0.50211 10.8046C0.180615 10.4831 0 10.0471 0 9.59241C0 9.13775 0.180615 8.70171 0.50211 8.38021C0.823606 8.05871 1.25965 7.8781 1.71431 7.8781H18.0003L13.3596 3.09003C13.0382 2.76855 12.8577 2.33258 12.8577 1.87801C12.8577 1.42343 13.0382 0.987471 13.3596 0.66599Z" fill="black"/>
</svg>
